<?xml version="1.0" encoding="UTF-8"?>
<!DOCTYPE svg PUBLIC "-//W3C//DTD SVG 1.1//EN" "http://www.w3.org/Graphics/SVG/1.1/DTD/svg11.dtd">
<svg xmlns="http://www.w3.org/2000/svg" xmlns:xlink="http://www.w3.org/1999/xlink" version="1.1" width="330" height="211" viewBox="-0.5 -0.5 330 211"><defs><filter id="dropShadow"><feGaussianBlur in="SourceAlpha" stdDeviation="1.7" result="blur"/><feOffset in="blur" dx="3" dy="3" result="offsetBlur"/><feFlood flood-color="#3D4574" flood-opacity="0.4" result="offsetColor"/><feComposite in="offsetColor" in2="offsetBlur" operator="in" result="offsetBlur"/><feBlend in="SourceGraphic" in2="offsetBlur"/></filter></defs><g filter="url(#dropShadow)"><path d="M 160.83 70 L 161.02 70 L 160.78 76 L 160.88 82 L 160.96 88 L 160.75 94 L 160.83 100 L 161.05 100 L 160.83 106 L 160.97 112 L 160.64 118 L 161.05 124 L 160.83 130 M 154.83 130 L 154.83 130 L 154.76 124 L 154.93 118 L 154.81 112 L 154.79 106 L 154.83 100 L 155.02 100 L 154.95 94 L 154.61 88 L 155.06 82 L 155.07 76 L 154.83 70 M 154.83 130" fill="none" stroke="#000000" stroke-width="3" stroke-linejoin="round" stroke-linecap="round" stroke-miterlimit="1.42" transform="translate(2,3)" opacity="0.25"/><path d="M 160.83 70 L 161.02 70 L 160.78 76 L 160.88 82 L 160.96 88 L 160.75 94 L 160.83 100 L 161.05 100 L 160.83 106 L 160.97 112 L 160.64 118 L 161.05 124 L 160.83 130 M 154.83 130 L 154.83 130 L 154.76 124 L 154.93 118 L 154.81 112 L 154.79 106 L 154.83 100 L 155.02 100 L 154.95 94 L 154.61 88 L 155.06 82 L 155.07 76 L 154.83 70 M 154.83 130" fill="none" stroke="#6c8ebf" stroke-width="3" stroke-linejoin="round" stroke-linecap="round" stroke-miterlimit="1.42" pointer-events="all"/><path d="M 118.89 38 L 118.89 37.74 L 109.4 38.3 L 99.92 37.52 L 90.43 38.73 L 80.95 37.97 L 71.46 37.9 L 61.97 38.55 L 52.49 37.32 L 43 38 L 43.07 38 L 43.54 48.22 L 42.72 58.44 L 43.26 68.67 L 43.43 78.89 L 43.34 89.11 L 42.37 99.33 L 42.96 109.56 L 42.93 119.78 L 43 130 M 37 130 L 37.67 130 L 37.11 120.2 L 36.83 110.4 L 37.32 100.6 L 37.68 90.8 L 36.89 81 L 36.25 71.2 L 36.86 61.4 L 37.31 51.6 L 37.48 41.8 L 37 32 L 37 32.41 L 47.24 31.98 L 57.47 31.42 L 67.71 31.91 L 77.95 31.82 L 88.18 31.66 L 98.42 32.4 L 108.65 31.79 L 118.89 32 M 37 130" fill="none" stroke="#000000" stroke-width="3" stroke-linejoin="round" stroke-linecap="round" stroke-miterlimit="1.42" transform="translate(2,3)" opacity="0.25"/><path d="M 118.89 38 L 118.89 37.74 L 109.4 38.3 L 99.92 37.52 L 90.43 38.73 L 80.95 37.97 L 71.46 37.9 L 61.97 38.55 L 52.49 37.32 L 43 38 L 43.07 38 L 43.54 48.22 L 42.72 58.44 L 43.26 68.67 L 43.43 78.89 L 43.34 89.11 L 42.37 99.33 L 42.96 109.56 L 42.93 119.78 L 43 130 M 37 130 L 37.67 130 L 37.11 120.2 L 36.83 110.4 L 37.32 100.6 L 37.68 90.8 L 36.89 81 L 36.25 71.2 L 36.86 61.4 L 37.31 51.6 L 37.48 41.8 L 37 32 L 37 32.41 L 47.24 31.98 L 57.47 31.42 L 67.71 31.91 L 77.95 31.82 L 88.18 31.66 L 98.42 32.4 L 108.65 31.79 L 118.89 32 M 37 130" fill="none" stroke="#6c8ebf" stroke-width="3" stroke-linejoin="round" stroke-linecap="round" stroke-miterlimit="1.42" pointer-events="all"/><path d="M 196.67 32 L 196.67 32.4 L 206.26 31.25 L 215.85 32.58 L 225.45 31.3 L 235.04 32.24 L 244.63 32.56 L 254.22 31.27 L 263.82 31.44 L 273.41 32.48 L 283 32 L 282.99 32 L 283.46 41.8 L 282.85 51.6 L 282.79 61.4 L 283.53 71.2 L 283.55 81 L 282.63 90.8 L 283.28 100.6 L 283.2 110.4 L 283.4 120.2 L 283 130 M 277 130 L 276.66 130 L 277.21 119.78 L 277.25 109.56 L 277.73 99.33 L 277.73 89.11 L 277.16 78.89 L 276.41 68.67 L 276.97 58.44 L 276.82 48.22 L 277 38 L 277 38.57 L 266.96 38.29 L 256.92 38.17 L 246.88 37.46 L 236.84 37.81 L 226.79 38.01 L 216.75 38.37 L 206.71 38.26 L 196.67 38 M 277 130" fill="none" stroke="#000000" stroke-width="3" stroke-linejoin="round" stroke-linecap="round" stroke-miterlimit="1.42" transform="translate(2,3)" opacity="0.25"/><path d="M 196.67 32 L 196.67 32.4 L 206.26 31.25 L 215.85 32.58 L 225.45 31.3 L 235.04 32.24 L 244.63 32.56 L 254.22 31.27 L 263.82 31.44 L 273.41 32.48 L 283 32 L 282.99 32 L 283.46 41.8 L 282.85 51.6 L 282.79 61.4 L 283.53 71.2 L 283.55 81 L 282.63 90.8 L 283.28 100.6 L 283.2 110.4 L 283.4 120.2 L 283 130 M 277 130 L 276.66 130 L 277.21 119.78 L 277.25 109.56 L 277.73 99.33 L 277.73 89.11 L 277.16 78.89 L 276.41 68.67 L 276.97 58.44 L 276.82 48.22 L 277 38 L 277 38.57 L 266.96 38.29 L 256.92 38.17 L 246.88 37.46 L 236.84 37.81 L 226.79 38.01 L 216.75 38.37 L 206.71 38.26 L 196.67 38 M 277 130" fill="none" stroke="#6c8ebf" stroke-width="3" stroke-linejoin="round" stroke-linecap="round" stroke-miterlimit="1.42" pointer-events="all"/><rect x="118.89" y="0" width="77.78" height="70" fill="none" stroke="none" transform="translate(2,3)" opacity="0.25"/><rect x="118.89" y="0" width="77.78" height="70" fill="none" stroke="none" pointer-events="all"/><path d="M 160.14 9.32 L 169.06 1.14 C 169.88 0.44 170.82 0.02 171.95 0 L 192.07 0 C 194.17 0 196.67 1.74 196.67 4.71 L 196.67 9.32 Z M 118.89 70 L 118.89 17.38 C 118.89 14.79 121.22 12.83 123.45 12.83 L 196.67 12.83 L 196.67 70 Z" fill="#000000" stroke="none" transform="translate(2,3)" opacity="0.25"/><path d="M 160.14 9.32 L 169.06 1.14 C 169.88 0.44 170.82 0.02 171.95 0 L 192.07 0 C 194.17 0 196.67 1.74 196.67 4.71 L 196.67 9.32 Z M 118.89 70 L 118.89 17.38 C 118.89 14.79 121.22 12.83 123.45 12.83 L 196.67 12.83 L 196.67 70 Z" fill="#cccbcb" stroke="none" pointer-events="all"/><rect x="117.78" y="130" width="80" height="70" fill="none" stroke="none" transform="translate(2,3)" opacity="0.25"/><rect x="117.78" y="130" width="80" height="70" fill="none" stroke="none" pointer-events="all"/><path d="M 160.2 139.32 L 169.38 131.14 C 170.22 130.44 171.19 130.02 172.36 130 L 193.04 130 C 195.21 130 197.78 131.74 197.78 134.71 L 197.78 139.32 Z M 117.78 200 L 117.78 147.38 C 117.78 144.79 120.17 142.83 122.47 142.83 L 197.78 142.83 L 197.78 200 Z" fill="#000000" stroke="none" transform="translate(2,3)" opacity="0.25"/><path d="M 160.2 139.32 L 169.38 131.14 C 170.22 130.44 171.19 130.02 172.36 130 L 193.04 130 C 195.21 130 197.78 131.74 197.78 134.71 L 197.78 139.32 Z M 117.78 200 L 117.78 147.38 C 117.78 144.79 120.17 142.83 122.47 142.83 L 197.78 142.83 L 197.78 200 Z" fill="#2072b8" stroke="none" pointer-events="all"/><rect x="240" y="130" width="80" height="70" fill="none" stroke="none" transform="translate(2,3)" opacity="0.25"/><rect x="240" y="130" width="80" height="70" fill="none" stroke="none" pointer-events="all"/><path d="M 282.42 139.32 L 291.6 131.14 C 292.44 130.44 293.41 130.02 294.58 130 L 315.26 130 C 317.43 130 320 131.74 320 134.71 L 320 139.32 Z M 240 200 L 240 147.38 C 240 144.79 242.39 142.83 244.69 142.83 L 320 142.83 L 320 200 Z" fill="#000000" stroke="none" transform="translate(2,3)" opacity="0.25"/><path d="M 282.42 139.32 L 291.6 131.14 C 292.44 130.44 293.41 130.02 294.58 130 L 315.26 130 C 317.43 130 320 131.74 320 134.71 L 320 139.32 Z M 240 200 L 240 147.38 C 240 144.79 242.39 142.83 244.69 142.83 L 320 142.83 L 320 200 Z" fill="#2072b8" stroke="none" pointer-events="all"/><rect x="0" y="130" width="80" height="70" fill="none" stroke="none" transform="translate(2,3)" opacity="0.25"/><rect x="0" y="130" width="80" height="70" fill="none" stroke="none" pointer-events="all"/><path d="M 42.42 139.32 L 51.6 131.14 C 52.44 130.44 53.41 130.02 54.58 130 L 75.26 130 C 77.43 130 80 131.74 80 134.71 L 80 139.32 Z M 0 200 L 0 147.38 C 0 144.79 2.39 142.83 4.69 142.83 L 80 142.83 L 80 200 Z" fill="#000000" stroke="none" transform="translate(2,3)" opacity="0.25"/><path d="M 42.42 139.32 L 51.6 131.14 C 52.44 130.44 53.41 130.02 54.58 130 L 75.26 130 C 77.43 130 80 131.74 80 134.71 L 80 139.32 Z M 0 200 L 0 147.38 C 0 144.79 2.39 142.83 4.69 142.83 L 80 142.83 L 80 200 Z" fill="#2072b8" stroke="none" pointer-events="all"/></g></svg>