<svg xmlns="http://www.w3.org/2000/svg" width="330" height="211" viewBox="-0.5 -0.5 330 211"><defs><filter id="a"><feGaussianBlur in="SourceAlpha" stdDeviation="1.7" result="blur"/><feOffset in="blur" dx="3" dy="3" result="offsetBlur"/><feFlood flood-color="#3D4574" flood-opacity=".4" result="offsetColor"/><feComposite in="offsetColor" in2="offsetBlur" operator="in" result="offsetBlur"/><feBlend in="SourceGraphic" in2="offsetBlur"/></filter></defs><g filter="url(#a)"><path d="M162.83 73h.19l-.24 6 .1 6 .08 6-.21 6 .08 6h.22l-.22 6 .14 6-.33 6 .41 6-.22 6m-6 0h0l-.07-6 .17-6-.12-6-.02-6 .04-6h.19l-.07-6-.34-6 .45-6 .01-6-.24-6m0 60" fill="none" stroke="#000" stroke-width="3" stroke-linejoin="round" stroke-linecap="round" stroke-miterlimit="1.42" opacity=".25"/><path d="M160.83 70h.19l-.24 6 .1 6 .08 6-.21 6 .08 6h.22l-.22 6 .14 6-.33 6 .41 6-.22 6m-6 0h0l-.07-6 .17-6-.12-6-.02-6 .04-6h.19l-.07-6-.34-6 .45-6 .01-6-.24-6m0 60" fill="none" stroke="#6c8ebf" stroke-width="3" stroke-linejoin="round" stroke-linecap="round" stroke-miterlimit="1.42" pointer-events="all"/><path d="M120.89 41v-.26l-9.49.56-9.48-.78-9.49 1.21-9.48-.76-9.49-.07-9.49.65-9.48-1.23L45 41h.07l.47 10.22-.82 10.22.54 10.23.17 10.22-.09 10.22-.97 10.22.59 10.23-.03 10.22L45 133m-6 0h.67l-.56-9.8-.28-9.8.49-9.8.36-9.8-.79-9.8-.64-9.8.61-9.8.45-9.8.17-9.8L39 35v.41l10.24-.43 10.23-.56 10.24.49 10.24-.09 10.23-.16 10.24.74 10.23-.61 10.24.21M39 133" fill="none" stroke="#000" stroke-width="3" stroke-linejoin="round" stroke-linecap="round" stroke-miterlimit="1.42" opacity=".25"/><path d="M118.89 38v-.26l-9.49.56-9.48-.78-9.49 1.21-9.48-.76-9.49-.07-9.49.65-9.48-1.23L43 38h.07l.47 10.22-.82 10.22.54 10.23.17 10.22-.09 10.22-.97 10.22.59 10.23-.03 10.22L43 130m-6 0h.67l-.56-9.8-.28-9.8.49-9.8.36-9.8-.79-9.8-.64-9.8.61-9.8.45-9.8.17-9.8L37 32v.41l10.24-.43 10.23-.56 10.24.49 10.24-.09 10.23-.16 10.24.74 10.23-.61 10.24.21M37 130" fill="none" stroke="#6c8ebf" stroke-width="3" stroke-linejoin="round" stroke-linecap="round" stroke-miterlimit="1.42" pointer-events="all"/><path d="M198.67 35v.4l9.59-1.15 9.59 1.33 9.6-1.28 9.59.94 9.59.32 9.59-1.29 9.6.17 9.59 1.04L285 35h-.01l.47 9.8-.61 9.8-.06 9.8.74 9.8.02 9.8-.92 9.8.65 9.8-.08 9.8.2 9.8-.4 9.8m-6 0h-.34l.55-10.22.04-10.22.48-10.23V92.11l-.57-10.22-.75-10.22.56-10.23-.15-10.22L279 41v.57l-10.04-.28-10.04-.12-10.04-.71-10.04.35-10.05.2-10.04.36-10.04-.11-10.04-.26M279 133" fill="none" stroke="#000" stroke-width="3" stroke-linejoin="round" stroke-linecap="round" stroke-miterlimit="1.42" opacity=".25"/><path d="M196.67 32v.4l9.59-1.15 9.59 1.33 9.6-1.28 9.59.94 9.59.32 9.59-1.29 9.6.17 9.59 1.04L283 32h-.01l.47 9.8-.61 9.8-.06 9.8.74 9.8.02 9.8-.92 9.8.65 9.8-.08 9.8.2 9.8-.4 9.8m-6 0h-.34l.55-10.22.04-10.22.48-10.23V89.11l-.57-10.22-.75-10.22.56-10.23-.15-10.22L277 38v.57l-10.04-.28-10.04-.12-10.04-.71-10.04.35-10.05.2-10.04.36-10.04-.11-10.04-.26M277 130" fill="none" stroke="#6c8ebf" stroke-width="3" stroke-linejoin="round" stroke-linecap="round" stroke-miterlimit="1.42" pointer-events="all"/><path fill="none" opacity=".25" d="M120.89 3h77.78v70h-77.78z"/><path fill="none" pointer-events="all" d="M118.89 0h77.78v70h-77.78z"/><path d="M162.14 12.32l8.92-8.18c.82-.7 1.76-1.12 2.89-1.14h20.12c2.1 0 4.6 1.74 4.6 4.71v4.61zM120.89 73V20.38c0-2.59 2.33-4.55 4.56-4.55h73.22V73z" opacity=".25"/><path d="M160.14 9.32l8.92-8.18c.82-.7 1.76-1.12 2.89-1.14h20.12c2.1 0 4.6 1.74 4.6 4.71v4.61zM118.89 70V17.38c0-2.59 2.33-4.55 4.56-4.55h73.22V70z" fill="#cccbcb" pointer-events="all"/><path fill="none" opacity=".25" d="M119.78 133h80v70h-80z"/><path fill="none" pointer-events="all" d="M117.78 130h80v70h-80z"/><path d="M162.2 142.32l9.18-8.18c.84-.7 1.81-1.12 2.98-1.14h20.68c2.17 0 4.74 1.74 4.74 4.71v4.61zM119.78 203v-52.62c0-2.59 2.39-4.55 4.69-4.55h75.31V203z" opacity=".25"/><path d="M160.2 139.32l9.18-8.18c.84-.7 1.81-1.12 2.98-1.14h20.68c2.17 0 4.74 1.74 4.74 4.71v4.61zM117.78 200v-52.62c0-2.59 2.39-4.55 4.69-4.55h75.31V200z" fill="#2072b8" pointer-events="all"/><path fill="none" opacity=".25" d="M242 133h80v70h-80z"/><path fill="none" pointer-events="all" d="M240 130h80v70h-80z"/><path d="M284.42 142.32l9.18-8.18c.84-.7 1.81-1.12 2.98-1.14h20.68c2.17 0 4.74 1.74 4.74 4.71v4.61zM242 203v-52.62c0-2.59 2.39-4.55 4.69-4.55H322V203z" opacity=".25"/><path d="M282.42 139.32l9.18-8.18c.84-.7 1.81-1.12 2.98-1.14h20.68c2.17 0 4.74 1.74 4.74 4.71v4.61zM240 200v-52.62c0-2.59 2.39-4.55 4.69-4.55H320V200z" fill="#2072b8" pointer-events="all"/><path fill="none" opacity=".25" d="M2 133h80v70H2z"/><path fill="none" pointer-events="all" d="M0 130h80v70H0z"/><path d="M44.42 142.32l9.18-8.18c.84-.7 1.81-1.12 2.98-1.14h20.68c2.17 0 4.74 1.74 4.74 4.71v4.61zM2 203v-52.62c0-2.59 2.39-4.55 4.69-4.55H82V203z" opacity=".25"/><path d="M42.42 139.32l9.18-8.18c.84-.7 1.81-1.12 2.98-1.14h20.68c2.17 0 4.74 1.74 4.74 4.71v4.61zM0 200v-52.62c0-2.59 2.39-4.55 4.69-4.55H80V200z" fill="#2072b8" pointer-events="all"/></g></svg>